# xmcd CD database file
#
# Track frame offsets:
#	150
#	8318
#	22654
#	50079
#	70334
#	81516
#	91568
#	104072
#	115593
#	126350
#	145215
#	159890
#	178215
#	202973
#	216235
#
# Disc length: 2967 seconds
#
# Revision: 0
# Processed by: cddbd v1.5.2PL0 Copyright (c) Steve Scherf et al.
# Submitted via: CDex 2.18
#
DISCID=c40b950f
DTITLE=Gilbert Isbin and Geert Verbeke - Twins
DYEAR=1900
DGENRE=Jazz
TTITLE0=Amphora
TTITLE1=Royal Tune
TTITLE2=Saska Maya
TTITLE3=Secrets
TTITLE4=Nazca
TTITLE5=Wide
TTITLE6=Threat
TTITLE7=Embrace
TTITLE8=Jonas and The Fish
TTITLE9=Open Day
TTITLE10=Apple
TTITLE11=Loop
TTITLE12=Tingsha's
TTITLE13=Child
TTITLE14=Koko
EXTD=
EXTT0=
EXTT1=
EXTT2=
EXTT3=
EXTT4=
EXTT5=
EXTT6=
EXTT7=
EXTT8=
EXTT9=
EXTT10=
EXTT11=
EXTT12=
EXTT13=
EXTT14=
PLAYORDER=
